<svg preserveAspectRatio="none" width="100%" height="100%" overflow="visible" style="display: block;" viewBox="0 0 24 24" fill="none" xmlns="http://www.w3.org/2000/svg">
<g id="ic_m_home_filled">
<path id="Union" d="M10 16.5C9.99984 14.9966 10 13.998 11.9999 14.006C13.9998 14.0139 14.0005 14.9966 14 16.5L13.9996 18.0023C14 19 13.9996 19.4147 14.2925 19.7074C14.5854 20 15 20 16 20C18 20 18.9995 20 19.4995 19.5004C19.9995 19.0008 20 17.326 20 14.5C20 13.5008 20.0222 11.0077 19.642 10.1706C19.2833 9.38068 18.4003 8.23005 16.9996 7.0111C15.2781 5.51312 12.9509 4 11.9999 4C11.0489 4 8.7214 5.51312 6.99995 7.0111C5.59916 8.23005 4.71623 9.38068 4.35748 10.1706C3.97731 11.0077 4.00001 13.5008 4.00001 14.5C4.00001 17.326 4.00001 19.0008 4.50003 19.5004C5.00003 20 6.00001 20 8.00001 20C9.00001 20 9.41416 20 9.70704 19.7074C9.99993 19.4147 10 19 9.99993 18.0023L10 16.5Z" fill="var(--fill-0, #005BFF)"/>
</g>
</svg>
