<svg preserveAspectRatio="none" width="100%" height="100%" overflow="visible" style="display: block;" viewBox="0 0 24 24" fill="none" xmlns="http://www.w3.org/2000/svg">
<g id="ic_m_multicolor_check_green">
<path id="Vector" d="M12 21C17.5842 21 21 17.5842 21 12C21 6.4158 17.5842 3 12 3C6.4158 3 3 6.4158 3 12C3 17.5842 6.4158 21 12 21Z" fill="var(--fill-0, #10C44C)"/>
<path id="Vector_2" d="M16.7071 10.7071C17.0976 10.3166 17.0976 9.68342 16.7071 9.29289C16.3166 8.90237 15.6834 8.90237 15.2929 9.29289L11 13.5858L8.70711 11.2929C8.31658 10.9024 7.68342 10.9024 7.29289 11.2929C6.90237 11.6834 6.90237 12.3166 7.29289 12.7071L10.2929 15.7071C10.6834 16.0976 11.3166 16.0976 11.7071 15.7071L16.7071 10.7071Z" fill="var(--fill-0, white)"/>
</g>
</svg>
