<svg preserveAspectRatio="none" width="100%" height="100%" overflow="visible" style="display: block;" viewBox="0 0 24 24" fill="none" xmlns="http://www.w3.org/2000/svg">
<g id="ic_m_key_filled">
<path id="Union" d="M9.67137 5.1673C12.7996 2.10203 14.2746 2.23343 18.0284 5.91174C21.7823 9.59006 21.9164 11.0354 18.7882 14.1007C16.4348 16.4067 15.0171 16.9035 12.8609 15.4421L8.91166 19.3119C6.92958 21.2541 6.63246 21.5452 5.11299 20.0563C3.90037 18.8681 3.68187 15.7444 4.4416 15L5.11299 14.1007C5.2982 13.9193 5.65458 13.924 6.01981 13.9289C6.40367 13.934 6.79731 13.9392 7.01232 13.7285C7.45736 13.2924 7.38101 12.8563 7.31775 12.4951C7.27302 12.2396 7.23484 12.0216 7.39219 11.8674L8.30251 10.9754C6.81098 8.86252 7.318 7.47332 9.67137 5.1673ZM15.7492 11.1231C16.5884 10.3008 16.5884 8.9676 15.7492 8.1453C14.9101 7.32301 13.5495 7.32301 12.7103 8.1453C11.8711 8.9676 11.8711 10.3008 12.7103 11.1231C13.5495 11.9454 14.9101 11.9454 15.7492 11.1231Z" fill="var(--fill-0, #005BFF)"/>
</g>
</svg>
