<svg preserveAspectRatio="none" width="100%" height="100%" overflow="visible" style="display: block;" viewBox="0 0 24 24" fill="none" xmlns="http://www.w3.org/2000/svg">
<g id="ic_m_gosuslugi_filled">
<path id="Union" d="M14.51 2.48637C13.6665 2.20406 12.7877 2 12.0001 2C11.2125 2 10.3335 2.20406 9.49004 2.48637C8.63293 2.77325 7.7472 3.16329 6.92586 3.58476C6.10391 4.00654 5.329 4.46877 4.69395 4.90764C4.08521 5.32832 3.52209 5.78347 3.20253 6.20045C2.61833 6.96273 2.33414 7.94193 2.18336 8.91005C2.0304 9.89217 2 10.9701 2 12C2 13.0299 2.0304 14.1078 2.18336 15.09C2.33414 16.0581 2.61833 17.0373 3.20253 17.7996C3.52209 18.2166 4.08521 18.6717 4.69395 19.0924C5.32901 19.5313 6.10391 19.9935 6.92586 20.4153C7.7472 20.8367 8.63294 21.2268 9.49004 21.5136C10.3335 21.7959 11.2125 22 12.0001 22C12.7877 22 13.6665 21.7959 14.51 21.5136C15.3671 21.2268 16.2528 20.8367 17.0741 20.4153C17.8961 19.9935 18.671 19.5313 19.306 19.0924C19.9148 18.6717 20.4779 18.2166 20.7975 17.7996C21.3817 17.0373 21.6659 16.0581 21.8166 15.09C21.9696 14.1078 22 13.0299 22 12C22 10.9701 21.9696 9.89218 21.8166 8.91005C21.6659 7.94193 21.3817 6.96273 20.7975 6.20045C20.4779 5.78347 19.9148 5.32832 19.306 4.90764C18.671 4.46877 17.8961 4.00654 17.0741 3.58476C16.2528 3.16329 15.3671 2.77325 14.51 2.48637ZM3 10C3 9.44772 3.44772 9 4 9H9C9.55228 9 10 9.44772 10 10C10 10.5523 9.55228 11 9 11H4C3.44772 11 3 10.5523 3 10ZM3 14C3 13.4477 3.44772 13 4 13H15C15.5523 13 16 13.4477 16 14C16 14.5523 15.5523 15 15 15H4C3.44772 15 3 14.5523 3 14Z" fill="var(--fill-0, #005BFF)"/>
</g>
</svg>
