<svg preserveAspectRatio="none" width="100%" height="100%" overflow="visible" style="display: block;" viewBox="0 0 24 24" fill="none" xmlns="http://www.w3.org/2000/svg">
<g id="ic_m_bell_filled">
<g id="Union">
<path d="M13 4C13 3.44772 12.5523 3 12 3C11.4477 3 11 3.44772 11 4C7.33114 4.3927 6.65279 7.03586 6.1079 9.11821C5.91732 9.84651 5.74307 10.5124 5.46291 11C5.29239 11.2968 5.09424 11.5495 4.89986 11.7975C4.4393 12.3849 4 12.9452 4 14C3.99998 16 6.99107 18 12 18C17.0089 18 20 16 20 14C20 12.9496 19.5524 12.3896 19.085 11.8048C18.885 11.5545 18.6813 11.2997 18.5076 11C18.2223 10.5077 18.0479 9.83368 17.8573 9.09717C17.3196 7.01851 16.6531 4.39152 13 4Z" fill="var(--fill-0, #001A34)" fill-opacity="0.4"/>
<path d="M9.30324 19C8.94643 18.9786 8.93152 19.4088 9.13668 19.701C9.68323 20.4796 10.8712 21 12 21C13.1436 21 14.3291 20.4662 14.8711 19.6705C15.0716 19.376 15.0524 18.975 14.6965 19.0003C14.6965 19.0003 13.5134 19.1875 12 19.1875C10.5031 19.1875 9.30324 19 9.30324 19Z" fill="var(--fill-0, #001A34)" fill-opacity="0.4"/>
</g>
</g>
</svg>
