<svg preserveAspectRatio="none" width="100%" height="100%" overflow="visible" style="display: block;" viewBox="0 0 16 16" fill="none" xmlns="http://www.w3.org/2000/svg">
<g id="ic_s_info_filled">
<path id="Union" d="M8 0C12.9637 0 16 3.03627 16 8C16 12.9637 12.9637 16 8 16C3.03627 16 0 12.9637 0 8C0 3.03627 3.03627 0 8 0ZM7.11111 11.5556C7.11111 12.0465 7.50908 12.4444 8 12.4444C8.49092 12.4444 8.88889 12.0465 8.88889 11.5556V8C8.88889 7.50908 8.49092 7.11111 8 7.11111C7.50908 7.11111 7.11111 7.50908 7.11111 8V11.5556ZM8.88889 4.44444C8.88889 3.95353 8.49092 3.55556 8 3.55556C7.50908 3.55556 7.11111 3.95353 7.11111 4.44444C7.11111 4.93536 7.50908 5.33333 8 5.33333C8.49092 5.33333 8.88889 4.93536 8.88889 4.44444Z" fill="var(--fill-0, #001A34)" fill-opacity="0.4"/>
</g>
</svg>
