<svg preserveAspectRatio="none" width="100%" height="100%" overflow="visible" style="display: block;" viewBox="0 0 157.846 24" fill="none" xmlns="http://www.w3.org/2000/svg">
<g id="ozon_bank_line">
<path id="ozon_bank_line_2" d="M18.1163 15.3708C18.1163 20.477 14.2849 24 9.05814 24C3.82911 24 7.74554e-06 20.477 7.74554e-06 15.3708C7.74554e-06 10.2646 3.83141 6.74162 9.05814 6.74162C14.2872 6.74162 18.1163 10.2646 18.1163 15.3708ZM53.4186 15.3708C53.4186 20.477 49.5872 24 44.3605 24C39.1337 24 35.3023 20.477 35.3023 15.3708C35.3023 10.2646 39.1337 6.74162 44.3605 6.74162C49.5872 6.74162 53.4186 10.2646 53.4186 15.3708ZM71.848 13.481V23.439H67.4479V14.4009C67.4479 11.7978 66.2045 10.7234 64.0839 10.7234C61.8573 10.7234 60.2525 11.9478 60.2525 15.473V23.439H55.8524V7.25042H60.2018V9.7013H60.3054C61.3922 7.86371 63.2573 6.73935 65.6381 6.73935C69.207 6.74162 71.848 8.68143 71.848 13.481ZM138.176 7.25042V23.439H133.776V16.9018L126.734 16.9018V23.439H122.334V7.25042H126.734V13.1221H133.776V7.25042L138.176 7.25042ZM114.209 7.25042V9.59909H114.105C113.329 7.96593 111.257 6.73935 108.618 6.73935C104.322 6.73935 100.801 9.80352 100.801 15.3186C100.801 20.8859 104.218 24 108.618 24C111.31 24 113.226 22.7734 114.105 21.2425H114.209V23.439H118.609V7.25042H114.209ZM90.9164 7.09824C88.2247 7.09824 86.1547 8.32482 85.0679 10.2646H84.9643C85.1186 6.68938 86.362 5.15843 90.6055 4.74957L97.1792 4.13628V0L89.8802 0.561045C82.7378 1.12209 80.6149 5.9239 80.6149 13.5832C80.6149 20.3748 84.6005 24 89.7766 24C94.902 24 98.8347 20.3748 98.8347 15.3186C98.8347 10.2646 95.2635 7.09824 90.9164 7.09824ZM19.7211 7.25042V10.9279L28.3648 10.9279L19.5139 19.9659V23.439H34.2155V19.7615H24.9502L33.8011 10.6712V7.25042L19.7211 7.25042ZM109.758 20.0681C107.117 20.0681 105.411 18.1283 105.411 15.4208C105.411 12.6633 107.119 10.6712 109.758 10.6712C112.397 10.6712 114.209 12.611 114.209 15.3685C114.209 18.0761 112.397 20.0681 109.758 20.0681ZM4.60737 15.3708C4.60737 18.1783 6.36649 20.0182 9.05814 20.0182C11.7498 20.0182 13.5089 18.1806 13.5089 15.3708C13.5089 12.561 11.7498 10.7234 9.05814 10.7234C6.36649 10.7234 4.60737 12.561 4.60737 15.3708ZM39.9097 15.3708C39.9097 18.1783 41.6688 20.0182 44.3605 20.0182C47.0521 20.0182 48.8112 18.1806 48.8112 15.3708C48.8112 12.561 47.0521 10.7234 44.3605 10.7234C41.6688 10.7234 39.9097 12.561 39.9097 15.3708ZM89.7236 20.0681C87.1886 20.0681 85.2199 18.1783 85.2199 15.3708C85.2199 12.5111 87.1863 10.8257 89.7236 10.8257C92.261 10.8257 94.2274 12.5111 94.2274 15.3708C94.2274 18.1783 92.261 20.0681 89.7236 20.0681ZM152.256 23.439L146.304 15.6775V23.439H141.903V7.25042H146.304V13.9398L151.79 7.25042L157.227 7.25042L150.496 14.6031L157.846 23.4367H152.256V23.439Z" fill="var(--fill-0, #005BFF)"/>
</g>
</svg>
